<svg viewBox="0 0 1440 1024" fill="none" xmlns="http://www.w3.org/2000/svg">
  <path fill="#E5E5E5" d="M0 0h1440v1024H0z"/>
  <g id="preloader">
    <path fill="#fff" d="M0 0h1440v1024H0z"/>
    <g id="preloader_2" fill="#464846">
      <path id="line 3" d="M876.628 437.125h-12.033v174.371h12.033V437.125Z"/>
      <path id="line 2" d="M876.628 614.867v-12.04H573.699v12.04h302.929Z"/>
      <path id="line 1" d="M585.756 417.283v194.574h-12.033V488.972c.096-.867.144-1.903.144-3.058v-58.638c0-1.156-.048-2.191-.144-3.058-.12-1.035-.313-1.878-.554-2.504-.481-1.18-1.371-1.999-2.719-2.481-1.372-.457-3.418-.698-6.209-.698-.169 0-.241-.241-.241-.747 0-.505.072-.77.241-.77l6.45.12c1.059.048 2.093.097 3.032.145 2.383.072 4.404.12 6.089.12 1.685 0 3.682-.024 5.944-.12Z"/>
      <path id="line 4" d="M690.279 448.66h186.349v-12.04H758.941c-.818.096-1.829.144-2.936.144h-56.148c-1.107 0-2.094-.048-2.936-.144-.987-.121-1.805-.313-2.407-.554-1.131-.482-1.925-1.373-2.382-2.721-.434-1.373-.674-3.42-.674-6.213 0-.169-.241-.241-.722-.241-.482 0-.746.072-.746.241l.12 6.454c.048 1.059.096 2.095.144 3.034.073 2.384.121 4.407.121 6.092 0 1.686 0 3.685-.121 5.948h.025Z"/>
      <path id="cirlce2" d="M781.059 490.489c-1.974.506-3.947.433-5.897-.145-1.949-.602-3.682-1.661-5.174-3.154-1.757-1.758-2.816-3.709-3.201-5.852-.385-2.143-.168-4.238.602-6.261.77-2.023 1.877-3.757 3.321-5.226 1.612-1.613 3.441-2.673 5.415-3.13 1.997-.458 3.947-.409 5.848.168 1.901.602 3.562 1.59 4.958 2.986 1.564 1.566 2.575 3.396 3.056 5.515.482 2.119.41 4.238-.216 6.381a13.061 13.061 0 0 1-3.345 5.611c-1.613 1.614-3.37 2.625-5.343 3.131l-.024-.024Zm7.533-8.212c.264-1.372.072-2.817-.53-4.383-.602-1.541-1.661-3.058-3.129-4.551-1.564-1.565-3.249-2.721-5.005-3.443-1.757-.723-3.49-.964-5.151-.699-1.66.265-3.153 1.036-4.452 2.336-1.661 1.662-2.359 3.54-2.07 5.635.265 2.095 1.468 4.214 3.562 6.309 1.612 1.614 3.369 2.818 5.222 3.612 1.854.771 3.635 1.06 5.319.867 1.685-.192 3.129-.915 4.332-2.095 1.035-1.035 1.661-2.215 1.926-3.588h-.024Z"/>
      <path id="circle 1" d="M729.653 577.13c-8.856 2.216-17.641 1.999-26.353-.674-8.688-2.673-16.413-7.369-23.152-14.111-7.87-7.875-12.635-16.616-14.272-26.2-1.636-9.585-.746-18.904 2.648-27.983 3.393-9.03 8.351-16.832 14.825-23.31 7.268-7.272 15.33-11.944 24.235-14.039 8.881-2.095 17.593-1.83 26.113.795 8.543 2.648 15.908 7.103 22.165 13.365 6.955 6.959 11.504 15.171 13.646 24.634 2.142 9.488 1.805 18.976-.963 28.488-2.791 9.512-7.797 17.868-14.969 25.044-7.172 7.177-15.066 11.776-23.947 13.991h.024Zm33.67-36.675c1.155-6.116.361-12.618-2.335-19.554-2.719-6.911-7.388-13.702-14.031-20.348-7.027-7.032-14.488-12.161-22.406-15.412-7.918-3.251-15.571-4.286-23.032-3.106-7.46 1.18-14.079 4.671-19.879 10.475-7.413 7.417-10.517 15.821-9.29 25.237 1.228 9.415 6.546 18.807 15.933 28.199 7.244 7.248 15.041 12.642 23.32 16.11 8.279 3.491 16.221 4.768 23.778 3.853 7.557-.915 14.031-4.046 19.374-9.392 4.597-4.599 7.437-9.945 8.592-16.062h-.024Z"/>
      <path id="button" d="M665.081 410h-55.354v38.53h55.354V410Zm-42.504 32.342c-1.294 0-2.236-.09-2.848-.288-.612-.18-1.035-.54-1.247-1.061-.165-.396-.235-.936-.282-1.637v-20.128c.023-.72.117-1.259.282-1.637.212-.522.635-.846 1.224-1.008.117-.018.282-.071.423-.089.589-.09 1.412-.162 2.448-.162h29.513c.988 0 1.741.054 2.33.162.188.018.376.071.517.125.612.162 1.083.522 1.318 1.026.165.306.283.755.33 1.295v20.434a5.353 5.353 0 0 1-.306 1.637c-.236.521-.636.863-1.248 1.061-.588.18-1.529.288-2.824.288h-29.63v-.018Z"/>
    </g>
  </g>
</svg>
